<svg width="290" height="56" viewBox="0 0 290 56" fill="none" xmlns="http://www.w3.org/2000/svg">
<path d="M280.241 34.1272H282.219C282.615 35.0496 283.274 35.4449 284.329 35.4449C285.384 35.4449 286.044 35.0496 286.439 34.1272H288.418C287.89 36.2354 286.439 37.2896 284.329 37.2896C282.219 37.2896 280.769 36.2354 280.241 34.1272ZM281.955 54.0235V55.7365H278.263V38.739H281.955V48.3577L282.483 47.3036L286.307 40.7154V38.8707H290V55.8682H286.307V47.0401V46.3813L285.648 47.5671L281.955 54.0235ZM266.13 54.0235V55.7365H262.438V38.739H266.13V48.3577L266.658 47.3036L270.482 40.7154V38.8707H274.175V55.8682H270.482V47.0401V46.3813L269.823 47.5671L266.13 54.0235ZM246.744 38.739H250.437V45.5907H254.525V38.739H258.217V55.7365H254.525V48.753H250.437V55.7365H246.744V38.739ZM239.095 49.2801L237.381 42.2966L235.666 49.2801H239.095ZM235.798 38.739H239.623L244.502 55.7365H240.678L239.886 52.1789H235.139L234.347 55.7365H230.919L235.798 38.739ZM217.203 38.739H228.809V55.7365H225.116V41.9013H221.028V55.7365H217.335V38.739H217.203ZM197.29 38.739H202.829L205.202 49.2801L207.972 38.739H213.247V55.7365H209.686V41.506L206.257 55.7365H203.488L200.323 41.506V55.7365H197.29V38.739ZM189.905 47.1718C189.905 44.9318 189.773 43.3507 189.377 42.5601C188.981 41.7695 188.454 41.3742 187.663 41.3742C186.871 41.3742 186.344 41.7695 185.948 42.5601C185.553 43.3507 185.421 44.8001 185.421 47.1718C185.421 49.4118 185.553 50.993 185.948 51.7836C186.344 52.5741 186.871 52.9694 187.663 52.9694C188.454 52.9694 188.981 52.5741 189.377 51.7836C189.641 51.1247 189.905 49.5436 189.905 47.1718ZM193.861 47.1718C193.861 53.1012 191.751 56 187.663 56C185.553 56 184.102 55.2094 183.047 53.76C181.992 52.3106 181.464 50.0706 181.464 47.1718C181.464 41.3742 183.574 38.3437 187.663 38.3437C189.641 38.3437 191.223 39.1342 192.278 40.5836C193.333 42.1648 193.861 44.273 193.861 47.1718ZM168.276 38.739H171.969V45.8542L176.057 38.739H179.882L175.662 45.0636L180.277 55.8682H176.453L173.42 47.9624L171.969 50.0706V55.8682H168.276V38.739V38.739ZM151.396 49.2801L149.682 42.2966L147.967 49.2801H151.396ZM148.099 38.739H151.924L156.803 55.7365H152.979L152.187 52.1789H147.44L146.648 55.7365H143.22L148.099 38.739ZM129.504 38.739H141.11V55.7365H137.417V41.9013H133.197V55.7365H129.504V38.739ZM113.811 38.739H125.416V55.7365H121.723V41.9013H117.635V55.7365H113.943V38.739H113.811ZM104.447 50.7295L99.3042 38.739H103.129L106.03 46.2495L108.536 38.739H112.096L107.481 51.52C106.953 53.233 106.294 54.2871 105.634 54.9459C104.975 55.4729 104.052 55.8682 102.865 55.8682H101.282V52.7059H102.865C103.129 52.7059 103.392 52.5741 103.656 52.4424C103.788 52.1789 104.052 51.6518 104.447 50.7295ZM91.2596 41.506V46.513H92.4465C93.5015 46.513 94.1609 46.2495 94.4247 45.8542C94.6884 45.3271 94.8203 44.8001 94.8203 44.0095C94.8203 43.3507 94.6884 42.8236 94.4247 42.4283C94.1609 42.0331 93.8972 41.7695 93.6334 41.6378C93.3697 41.506 92.8422 41.506 92.3146 41.506H91.2596V41.506ZM87.4352 38.739H92.3146C93.7653 38.739 94.9522 38.8707 95.7435 39.1342C96.5347 39.3978 97.1941 39.9248 97.8535 40.8472C98.381 41.7695 98.6448 42.8236 98.6448 44.1413C98.6448 45.3271 98.381 46.3813 97.9854 47.3036C97.5898 48.0942 96.9304 48.753 96.1391 49.0165C95.3478 49.4118 94.1609 49.5436 92.4465 49.5436H91.1277V55.8682H87.4352V38.739V38.739ZM85.0613 38.739V41.6378H78.4674V55.7365H74.7748V38.739H85.0613Z" fill="white"/>
<path d="M279.846 18.5787L276.945 6.45642L274.043 18.5787H279.846ZM274.175 0H280.769L289.341 29.9104H282.615L281.165 23.7175H272.725L271.274 29.9104H265.207L274.175 0ZM239.887 4.87526V13.7034H241.865C243.711 13.7034 244.766 13.3081 245.294 12.5176C245.821 11.727 246.085 10.5411 246.085 9.22346C246.085 8.16935 245.821 7.247 245.426 6.45642C245.03 5.7976 244.503 5.27055 243.975 5.13878C243.448 5.00702 242.656 4.87526 241.733 4.87526H239.887ZM233.293 0H241.865C244.503 0 246.481 0.263527 247.931 0.658818C249.382 1.05411 250.569 2.10822 251.492 3.55762C252.415 5.13878 252.943 6.98348 252.943 9.22346C252.943 11.4634 252.547 13.1764 251.756 14.6258C250.965 16.0752 249.91 17.1293 248.459 17.6563C247.008 18.3152 244.898 18.5787 241.997 18.5787H239.623V29.6468H233.029V0H233.293ZM198.345 0H216.544V5.13878H204.939V12.1223H213.907V17.261H204.939V24.6398H216.544V29.9104H198.345V0ZM151.133 0H160.76L164.98 18.4469L169.728 0H179.091V29.9104H172.893V4.87526L166.826 29.9104H162.079L156.54 4.87526V29.9104H151.133V0ZM117.504 26.748V29.7786H110.91V0H117.504V16.734L118.427 14.8893L125.153 3.29409V0H131.747V29.9104H125.153V14.3622V13.1764L124.098 15.1528L117.504 26.748ZM80.9737 4.87526V13.7034H83.0838C84.9301 13.7034 85.9851 13.3081 86.5126 12.5176C87.0401 11.5952 87.3039 10.5411 87.3039 9.22346C87.3039 8.16935 87.0401 7.247 86.6445 6.45642C86.2488 5.7976 85.7213 5.27055 85.1938 5.13878C84.6663 5.00702 83.875 4.87526 82.9519 4.87526H80.9737ZM74.3798 0H83.0838C85.7213 0 87.6995 0.263527 89.1502 0.658818C90.6008 1.05411 91.7877 2.10822 92.7109 3.55762C93.634 5.13878 94.1615 6.98348 94.1615 9.22346C94.1615 11.4634 93.7659 13.1764 92.9746 14.6258C92.1834 16.0752 91.1283 17.1293 89.6777 17.6563C88.227 18.3152 86.117 18.5787 83.2156 18.5787H80.8418V29.6468H74.2479V0H74.3798Z" fill="white"/>
<path fill-rule="evenodd" clip-rule="evenodd" d="M0 55.736V0H55.7845V55.736H0ZM34.1564 52.7055L29.277 47.8302V52.7055H34.1564ZM29.277 38.475V43.7455L38.2447 52.8372H43.5198L29.277 38.475ZM22.683 52.8372H26.3756V29.2515H22.683V52.8372ZM2.90132 22.6634V26.3527H29.9363C39.2997 26.3527 47.7399 22.9269 52.8831 18.5787V13.5717C47.608 18.5787 39.2997 22.6634 26.9031 22.6634H2.90132ZM52.8831 33.995L45.2342 26.3527C44.2332 26.7973 43.0445 27.1481 41.9056 27.4842C41.6941 27.5466 41.4844 27.6085 41.2779 27.6704L52.8831 39.2656V33.995ZM52.8831 22.2681C51.4325 23.3222 49.85 24.3763 48.1355 25.1669L52.8831 29.9104V22.2681ZM35.7963 4.78938C37.1618 4.16975 38.2967 3.65474 39.4316 2.8988H2.90132V6.58818H22.8149C28.7494 6.58818 32.7058 5.92937 35.6071 4.87526L35.7963 4.78938ZM6.59391 29.2515H2.90132V52.7055H6.59391V29.2515ZM25.7159 13.1763H2.90132V9.48698H22.8149C28.8813 9.48698 33.2333 8.82817 36.6621 7.51053C39.8272 6.32466 42.0691 4.74349 44.3111 2.8988H50.2149C45.6771 8.11316 36.5908 13.1763 25.7159 13.1763ZM2.90132 16.0751H25.7159C37.8716 16.0751 47.8094 10.4826 52.8831 4.20775V9.48698C48.1355 14.7575 40.3547 19.7646 26.9031 19.7646H2.90132V16.0751ZM29.277 34.5221L47.608 52.8372V52.969H52.8831V52.847L29.4256 29.3833H29.277V34.5221ZM37.9809 28.5927L52.8831 43.482V48.7452L33.3884 29.2453C34.9739 29.1171 36.5221 28.8996 37.9809 28.5927ZM9.49523 52.7055H13.1874V29.2515H9.49523V52.7055ZM19.7817 29.2515V52.7055H16.0887V29.2515H19.7817Z" fill="white"/>
</svg>
